<svg width="33" height="33" viewBox="0 0 33 33" fill="none" xmlns="http://www.w3.org/2000/svg">
<path d="M4.125 15.8125C4.12027 17.6273 4.54428 19.4176 5.3625 21.0375C6.33265 22.9786 7.82409 24.6113 9.66976 25.7527C11.5154 26.8941 13.6424 27.4991 15.8125 27.5C17.6273 27.5047 19.4176 27.0807 21.0375 26.2625L28.875 28.875L26.2625 21.0375C27.0807 19.4176 27.5047 17.6273 27.5 15.8125C27.4992 13.6424 26.8942 11.5154 25.7528 9.66973C24.6114 7.82407 22.9787 6.33263 21.0375 5.36248C19.4176 4.54426 17.6273 4.12025 15.8125 4.12498H15.125C12.259 4.28309 9.55207 5.49277 7.52243 7.52241C5.4928 9.55204 4.28311 12.259 4.125 15.125V15.8125Z" stroke="white" stroke-width="2" stroke-linecap="round" stroke-linejoin="round"/>
</svg>
