<svg width="33" height="33" viewBox="0 0 33 33" fill="none" xmlns="http://www.w3.org/2000/svg">
<path d="M24.7499 13.75H23.0174C22.503 11.7576 21.44 9.94949 19.9493 8.53104C18.4586 7.1126 16.5999 6.14074 14.5844 5.72588C12.569 5.31102 10.4775 5.46981 8.54781 6.18419C6.61807 6.89857 4.92741 8.13991 3.66793 9.76715C2.40845 11.3944 1.63064 13.3423 1.42291 15.3895C1.21517 17.4367 1.58582 19.5011 2.49275 21.3482C3.39968 23.1953 4.80652 24.7509 6.55341 25.8384C8.3003 26.9259 10.3172 27.5015 12.3749 27.5H24.7499C26.5733 27.5 28.322 26.7757 29.6113 25.4864C30.9006 24.1971 31.6249 22.4484 31.6249 20.625C31.6249 18.8016 30.9006 17.053 29.6113 15.7636C28.322 14.4743 26.5733 13.75 24.7499 13.75Z" stroke="white" stroke-width="2" stroke-linecap="round" stroke-linejoin="round"/>
</svg>
