<svg width="31" height="31" viewBox="0 0 31 31" fill="none" xmlns="http://www.w3.org/2000/svg">
<g filter="url(#filter0_d_5:538)">
<path d="M15.886 22C21.3564 22 25.791 17.5228 25.791 12C25.791 6.47715 21.3564 2 15.886 2C10.4156 2 5.981 6.47715 5.981 12C5.981 17.5228 10.4156 22 15.886 22Z" stroke="white" stroke-width="2" stroke-linecap="round" stroke-linejoin="round"/>
<path d="M13.0036 8.99999C13.2365 8.33166 13.6961 7.7681 14.3011 7.40912C14.9061 7.05015 15.6175 6.91893 16.3091 7.0387C17.0007 7.15848 17.6281 7.52151 18.08 8.06352C18.5319 8.60552 18.7793 9.29151 18.7782 9.99999C18.7782 12 15.8067 13 15.8067 13" stroke="white" stroke-width="2" stroke-linecap="round" stroke-linejoin="round"/>
<path d="M15.886 17H15.8961" stroke="white" stroke-width="2" stroke-linecap="round" stroke-linejoin="round"/>
</g>
<defs>
<filter id="filter0_d_5:538" x="0" y="0" width="31.772" height="32" filterUnits="userSpaceOnUse" color-interpolation-filters="sRGB">
<feFlood flood-opacity="0" result="BackgroundImageFix"/>
<feColorMatrix in="SourceAlpha" type="matrix" values="0 0 0 0 0 0 0 0 0 0 0 0 0 0 0 0 0 0 127 0" result="hardAlpha"/>
<feOffset dy="4"/>
<feGaussianBlur stdDeviation="2"/>
<feComposite in2="hardAlpha" operator="out"/>
<feColorMatrix type="matrix" values="0 0 0 0 0 0 0 0 0 0 0 0 0 0 0 0 0 0 0.25 0"/>
<feBlend mode="normal" in2="BackgroundImageFix" result="effect1_dropShadow_5:538"/>
<feBlend mode="normal" in="SourceGraphic" in2="effect1_dropShadow_5:538" result="shape"/>
</filter>
</defs>
</svg>
