<svg width="81" height="83" viewBox="0 0 81 83" fill="none" xmlns="http://www.w3.org/2000/svg">
<g filter="url(#filter0_d_5:367)">
<line y1="-1" x2="15" y2="-1" transform="matrix(0 -1 -1 0 75 15)" stroke="#EDE964" stroke-width="2"/>
<line y1="-1" x2="15" y2="-1" transform="matrix(1 0 0 -1 61 0)" stroke="#EDE964" stroke-width="2"/>
<line x1="76" y1="60" x2="76" y2="75" stroke="#EDE964" stroke-width="2"/>
<line x1="61" y1="74" x2="76" y2="74" stroke="#EDE964" stroke-width="2"/>
<line y1="-1" x2="15" y2="-1" transform="matrix(0 1 1 0 6 60)" stroke="#EDE964" stroke-width="2"/>
<line y1="-1" x2="15" y2="-1" transform="matrix(-1 0 0 1 20 75)" stroke="#EDE964" stroke-width="2"/>
<circle cx="40" cy="36" r="4" stroke="#EDE964" stroke-width="2"/>
<circle cx="40" cy="36" r="14" stroke="#EDE964" stroke-width="2"/>
<path d="M7 36C18.3333 46.8333 47.4 62 73 36" stroke="#EDE964" stroke-width="2"/>
<path d="M7 36.3559C18.3333 25.5226 47.4 10.3559 73 36.3559" stroke="#EDE964" stroke-width="2"/>
<line x1="5" y1="15" x2="5" stroke="#EDE964" stroke-width="2"/>
<line x1="20" y1="1" x2="5" y2="1" stroke="#EDE964" stroke-width="2"/>
<line x1="26.8321" y1="6.4453" x2="28.8321" y2="9.4453" stroke="#EDE964" stroke-width="2"/>
<line x1="30.8321" y1="12.4453" x2="32.8321" y2="15.4453" stroke="#EDE964" stroke-width="2"/>
<line x1="50.8321" y1="62.4453" x2="52.8321" y2="65.4453" stroke="#EDE964" stroke-width="2"/>
<line x1="46.8321" y1="56.4453" x2="48.8321" y2="59.4453" stroke="#EDE964" stroke-width="2"/>
<line x1="39" y1="6.60556" x2="39" y2="3.00001" stroke="#EDE964" stroke-width="2"/>
<line x1="40" y1="68.6056" x2="40" y2="65" stroke="#EDE964" stroke-width="2"/>
<line x1="40" y1="60.6056" x2="40" y2="57" stroke="#EDE964" stroke-width="2"/>
<line x1="39" y1="14.6056" x2="39" y2="11" stroke="#EDE964" stroke-width="2"/>
<line x1="49.1679" y1="9.4453" x2="51.1679" y2="6.4453" stroke="#EDE964" stroke-width="2"/>
<line x1="45.1679" y1="15.4453" x2="47.1679" y2="12.4453" stroke="#EDE964" stroke-width="2"/>
<line x1="27.1679" y1="65.4453" x2="29.1679" y2="62.4453" stroke="#EDE964" stroke-width="2"/>
<line x1="31.1679" y1="59.4453" x2="33.1679" y2="56.4453" stroke="#EDE964" stroke-width="2"/>
</g>
<defs>
<filter id="filter0_d_5:367" x="0" y="0" width="81" height="83" filterUnits="userSpaceOnUse" color-interpolation-filters="sRGB">
<feFlood flood-opacity="0" result="BackgroundImageFix"/>
<feColorMatrix in="SourceAlpha" type="matrix" values="0 0 0 0 0 0 0 0 0 0 0 0 0 0 0 0 0 0 127 0" result="hardAlpha"/>
<feOffset dy="4"/>
<feGaussianBlur stdDeviation="2"/>
<feComposite in2="hardAlpha" operator="out"/>
<feColorMatrix type="matrix" values="0 0 0 0 0 0 0 0 0 0 0 0 0 0 0 0 0 0 0.25 0"/>
<feBlend mode="normal" in2="BackgroundImageFix" result="effect1_dropShadow_5:367"/>
<feBlend mode="normal" in="SourceGraphic" in2="effect1_dropShadow_5:367" result="shape"/>
</filter>
</defs>
</svg>
