<svg width="1057" height="670" viewBox="0 0 1057 670" fill="none" xmlns="http://www.w3.org/2000/svg">
<path d="M232.816 606.555L419.613 505.103L546.588 675.211L352.649 675.447L232.816 606.555Z" fill="#2E93B4"/>
<path d="M418.688 490.167H378.893V527.506L418.688 549.91V490.167Z" fill="#EA9CD6"/>
<rect width="42.9786" height="59.7433" transform="matrix(-1 0 0 1 461.667 434.497)" fill="#EA9CD6"/>
<rect x="730.681" y="393.763" width="273.79" height="281.065" fill="#4A91D1"/>
<path d="M982.185 281.065H1057V502.387L982.185 543.121V281.065Z" fill="url(#paint0_linear_11_10)" fill-opacity="0.97"/>
<rect x="595.378" y="245.762" width="82.7736" height="145.285" fill="url(#paint1_linear_11_10)" fill-opacity="0.97"/>
<rect x="819.822" y="158.863" width="143.262" height="202.313" fill="url(#paint2_linear_11_10)" fill-opacity="0.97"/>
<rect x="512.604" y="245.762" width="82.7736" height="145.285" fill="#7FC6ED" fill-opacity="0.97"/>
<rect x="456.891" y="393.763" width="273.79" height="281.065" fill="#7FC6ED" fill-opacity="0.97"/>
<rect x="907.371" y="281.065" width="74.8148" height="112.698" fill="#7FC6ED" fill-opacity="0.97"/>
<rect x="676.56" y="158.863" width="143.262" height="202.313" fill="#7FC6ED" fill-opacity="0.97"/>
<path d="M676.56 158.863L819.822 95.0462L963.084 158.863L819.822 228.79L676.56 158.863Z" fill="#53A9D8"/>
<path d="M456.891 393.763L729.677 272.496L1002.88 394.442L730.113 527.352L456.891 393.763Z" fill="#53A9D8"/>
<path d="M907.371 281.065L982.185 247.739L1057 281.065L982.185 317.583L907.371 281.065Z" fill="#53A9D8" fill-opacity="0.97"/>
<path d="M512.604 245.423L594.98 208.728L677.356 245.423L594.98 285.631L512.604 245.423Z" fill="#53A9D8" fill-opacity="0.97"/>
<path d="M982.185 405.304L1002.88 393.763V674.828H982.185V405.304Z" fill="#4A91D1"/>
<path d="M891.453 485.202L966.267 446.717V674.828H891.453V485.202Z" fill="url(#paint3_linear_11_10)" fill-opacity="0.97"/>
<path d="M378.893 490.786L419.414 472.736L459.934 490.786L419.414 510.564L378.893 490.786Z" fill="#BBE6FE" fill-opacity="0.97"/>
<path d="M420.28 434.806L458.672 417.479L496.686 434.188L458.275 453.144L420.28 434.806Z" fill="#BBE6FE" fill-opacity="0.97"/>
<path d="M456.891 452.827L496.686 434.497V674.828H456.891V452.827Z" fill="#4A91D1"/>
<path d="M418.688 509.855L458.483 490.167V674.828H418.688V509.855Z" fill="#2E93B4"/>
<path d="M270.651 656.793L457.447 555.341L457.447 725.685L390.484 725.685L270.651 656.793Z" fill="#E45BC2" fill-opacity="0.97"/>
<path d="M368.105 562.499L420.512 551.501L22.7892 325.364L0.717189 353.609L368.105 562.499Z" fill="#B7D5F1" fill-opacity="0.38"/>
<path d="M586.752 393.923C580.846 391.041 581.011 383.729 587.042 381.042L760.456 303.795C762.952 302.683 765.928 302.683 768.424 303.795L941.838 381.042C947.869 383.729 948.034 391.041 942.128 393.923L768.715 478.567C766.067 479.86 762.814 479.86 760.165 478.567L586.752 393.923Z" fill="#2A6093" fill-opacity="0.4"/>
<path d="M574.239 371.945C568.306 369.11 568.39 361.802 574.387 359.066L749.327 279.252C751.809 278.12 754.784 278.094 757.293 279.184L928.51 353.574C934.577 356.21 934.824 363.528 928.943 366.457L753.876 453.651C751.241 454.964 747.989 454.988 745.328 453.716L574.239 371.945Z" fill="#FEFEFE"/>
<path d="M699.915 156.118C693.954 153.358 693.988 146.037 699.975 143.227L753.112 118.293C755.587 117.132 758.562 117.072 761.076 118.133L816.917 141.703C822.991 144.266 823.287 151.57 817.439 154.575L764.387 181.831C761.763 183.179 758.512 183.247 755.841 182.011L699.915 156.118Z" fill="#2A6093" fill-opacity="0.44"/>
<path d="M692.478 140.164C692.478 143.448 694.484 146.398 697.539 147.605L756.353 170.836C761.604 172.91 767.292 169.04 767.292 163.395V38.0669C767.292 34.8921 765.415 32.0177 762.508 30.7416L703.693 4.9234C698.407 2.60273 692.478 6.47519 692.478 12.2487V140.164Z" fill="#FEFEFE" fill-opacity="0.97"/>
<path d="M702.028 129.282C702.028 132.494 703.95 135.395 706.907 136.648L748.212 154.15C753.487 156.386 759.333 152.514 759.333 146.784V46.9975C759.333 43.8994 757.544 41.0798 754.742 39.7598L713.437 20.3083C708.131 17.8095 702.028 21.6809 702.028 27.5459V129.282Z" fill="#ECA1D9" fill-opacity="0.84"/>
<path d="M612.782 366.777C609.984 365.483 608.251 362.977 608.277 360.261L609.267 259.064L619.772 151.642C620.142 147.86 623.829 144.942 628.278 144.91L758.667 143.982L891.926 143.033C896.736 142.999 900.645 146.333 900.605 150.436L898.57 358.411C898.544 361.011 896.908 363.406 894.269 364.707L760.015 430.877C757.423 432.155 754.238 432.191 751.606 430.974L612.782 366.777Z" fill="url(#paint4_linear_11_10)" fill-opacity="0.84"/>
<path d="M610.629 365.12C604.723 362.238 604.888 354.926 610.919 352.239L750.565 290.033C753.062 288.921 756.038 288.921 758.534 290.033L898.18 352.239C904.212 354.926 904.377 362.238 898.471 365.12L758.825 433.282C756.176 434.575 752.923 434.575 750.275 433.282L610.629 365.12Z" fill="#FEACE9" fill-opacity="0.84"/>
<path d="M730.681 131.306C730.681 134.857 728.34 137.983 724.933 138.983L658.159 158.571C653.037 160.074 647.907 156.233 647.907 150.895V50.444C647.907 46.9811 650.135 43.9114 653.427 42.838L720.201 21.0681C725.372 19.3824 730.681 23.2358 730.681 28.6741V131.306Z" fill="url(#paint5_linear_11_10)" fill-opacity="0.84"/>
<path d="M638.229 309.003L755.363 256.825C757.704 255.783 760.494 255.783 762.834 256.825L879.969 309.003C885.623 311.522 885.778 318.377 880.241 321.079L763.107 378.253C760.624 379.465 757.574 379.465 755.091 378.253L637.956 321.079C632.42 318.377 632.575 311.522 638.229 309.003Z" stroke="#FEFEFE" stroke-opacity="0.87"/>
<path d="M638.229 352.453L755.363 300.275C757.704 299.232 760.494 299.232 762.834 300.275L879.969 352.453C885.623 354.972 885.778 361.826 880.241 364.529L763.107 421.703C760.624 422.915 757.574 422.915 755.091 421.703L637.956 364.529C632.42 361.826 632.575 354.972 638.229 352.453Z" stroke="#E45BC2" stroke-opacity="0.59"/>
<path d="M638.229 334.801L755.363 282.623C757.704 281.581 760.494 281.581 762.834 282.623L879.969 334.801C885.623 337.32 885.778 344.175 880.241 346.877L763.107 404.051C760.624 405.263 757.574 405.263 755.091 404.051L637.956 346.877C632.42 344.175 632.575 337.32 638.229 334.801Z" stroke="#FEFEFE" stroke-opacity="0.87"/>
<path d="M694.368 144.335L735.673 161.837C740.618 163.933 746.099 160.302 746.099 154.931V55.1443C746.099 52.2398 744.422 49.5965 741.794 48.359L700.489 28.9075C695.515 26.5649 689.794 30.1942 689.794 35.6927V137.429C689.794 140.44 691.595 143.16 694.368 144.335Z" stroke="#FEFEFE" stroke-opacity="0.87"/>
<path d="M668.899 152.481L710.204 169.984C715.149 172.079 720.63 168.449 720.63 163.078V63.2911C720.63 60.3866 718.953 57.7433 716.325 56.5058L675.021 37.0543C670.046 34.7117 664.325 38.3411 664.325 43.8396V145.576C664.325 148.587 666.126 151.306 668.899 152.481Z" stroke="#FEFEFE" stroke-opacity="0.87"/>
<path d="M981.294 242.853L982.643 297.706L937.998 276.787L981.294 242.853Z" fill="#EDD79E"/>
<path d="M981.027 243.205L982.395 298.058L1025.96 275.549L981.027 243.205Z" fill="#E6B948"/>
<path d="M726.581 446.717L727.93 501.571L717.126 501.571L726.581 446.717Z" fill="#A35E0C"/>
<path d="M723.737 453L724.818 502.034L732.203 502.034L723.737 453Z" fill="#824C0D"/>
<path d="M724.885 442.733L725.637 489.115L700.742 471.426L724.885 442.733Z" fill="#65C74C"/>
<path d="M724.736 443.03L725.499 489.412L749.794 470.379L724.736 443.03Z" fill="#4F9E42"/>
<path d="M724.117 415.429L724.868 466.672L700 447.129L724.117 415.429Z" fill="#65C74C"/>
<path d="M723.969 415.758L724.731 467L749 445.973L723.969 415.758Z" fill="#4F9E42"/>
<defs>
<linearGradient id="paint0_linear_11_10" x1="1019.59" y1="281.065" x2="1019.59" y2="543.121" gradientUnits="userSpaceOnUse">
<stop stop-color="#2A557C" stop-opacity="0.97"/>
<stop offset="0.0001" stop-color="#2F6393" stop-opacity="0.97"/>
<stop offset="0.815625" stop-color="#3E78AE"/>
</linearGradient>
<linearGradient id="paint1_linear_11_10" x1="636.765" y1="245.762" x2="636.765" y2="391.047" gradientUnits="userSpaceOnUse">
<stop stop-color="#2A557C" stop-opacity="0.97"/>
<stop offset="1" stop-color="#3776B0"/>
</linearGradient>
<linearGradient id="paint2_linear_11_10" x1="891.453" y1="158.863" x2="891.453" y2="361.176" gradientUnits="userSpaceOnUse">
<stop stop-color="#3A73A7"/>
<stop offset="1" stop-color="#4A91D1"/>
</linearGradient>
<linearGradient id="paint3_linear_11_10" x1="928.86" y1="446.717" x2="928.86" y2="674.828" gradientUnits="userSpaceOnUse">
<stop stop-color="#2A6093" stop-opacity="0.97"/>
<stop offset="1" stop-color="#3776B0"/>
</linearGradient>
<linearGradient id="paint4_linear_11_10" x1="758.151" y1="435.723" x2="756.859" y2="254.266" gradientUnits="userSpaceOnUse">
<stop offset="0.284375" stop-color="#FDB5EB"/>
<stop offset="1" stop-color="#F8B7E7" stop-opacity="0.09"/>
</linearGradient>
<linearGradient id="paint5_linear_11_10" x1="730.681" y1="17.6514" x2="636.984" y2="43.2818" gradientUnits="userSpaceOnUse">
<stop offset="0.270991" stop-color="#FEACE9" stop-opacity="0.73"/>
<stop offset="1" stop-color="#FEACE9" stop-opacity="0"/>
</linearGradient>
</defs>
</svg>
