<svg width="1057" height="614" viewBox="0 0 1057 614" fill="none" xmlns="http://www.w3.org/2000/svg">
<g style="mix-blend-mode:overlay">
<path d="M824.184 7.44543L637.387 108.897L510.412 -61.2115L704.351 -61.4467L824.184 7.44543Z" fill="#2E93B4"/>
<path d="M638.312 123.833H678.107V86.4935L638.312 64.0898V123.833Z" fill="#EA9CD6"/>
<rect width="42.9786" height="59.7433" transform="matrix(1 0 0 -1 595.333 179.503)" fill="#EA9CD6"/>
<rect x="326.319" y="220.237" width="273.79" height="281.065" transform="rotate(-180 326.319 220.237)" fill="#4A91D1"/>
<path d="M74.8146 332.935H0V111.613L74.8146 70.8788V332.935Z" fill="url(#paint0_linear_11_274)" fill-opacity="0.97"/>
<rect x="461.622" y="368.238" width="82.7736" height="145.285" transform="rotate(-180 461.622 368.238)" fill="url(#paint1_linear_11_274)" fill-opacity="0.97"/>
<rect x="237.178" y="455.137" width="143.262" height="202.313" transform="rotate(-180 237.178 455.137)" fill="url(#paint2_linear_11_274)" fill-opacity="0.97"/>
<rect x="544.396" y="368.238" width="82.7736" height="145.285" transform="rotate(-180 544.396 368.238)" fill="#7FC6ED" fill-opacity="0.97"/>
<rect x="600.109" y="220.237" width="273.79" height="281.065" transform="rotate(-180 600.109 220.237)" fill="#7FC6ED" fill-opacity="0.97"/>
<rect x="149.629" y="332.935" width="74.8148" height="112.698" transform="rotate(-180 149.629 332.935)" fill="#7FC6ED" fill-opacity="0.97"/>
<rect x="380.44" y="455.137" width="143.262" height="202.313" transform="rotate(-180 380.44 455.137)" fill="#7FC6ED" fill-opacity="0.97"/>
<path d="M380.44 455.137L237.178 518.954L93.9163 455.137L237.178 385.21L380.44 455.137Z" fill="#53A9D8"/>
<path d="M600.109 220.237L327.323 341.504L54.1212 219.558L326.887 86.6482L600.109 220.237Z" fill="#53A9D8"/>
<path d="M149.629 332.935L74.8147 366.261L0.000115929 332.935L74.8147 296.417L149.629 332.935Z" fill="#53A9D8" fill-opacity="0.97"/>
<path d="M544.396 368.577L462.02 405.272L379.644 368.577L462.02 328.369L544.396 368.577Z" fill="#53A9D8" fill-opacity="0.97"/>
<path d="M74.8146 208.696L54.1213 220.237V-60.8281H74.8146V208.696Z" fill="#4A91D1"/>
<path d="M165.547 128.798L90.7327 167.283V-60.8281H165.547V128.798Z" fill="url(#paint3_linear_11_274)" fill-opacity="0.97"/>
<path d="M678.107 123.214L637.586 141.264L597.066 123.214L637.586 103.436L678.107 123.214Z" fill="#BBE6FE" fill-opacity="0.97"/>
<path d="M636.72 179.194L598.328 196.521L560.314 179.812L598.725 160.856L636.72 179.194Z" fill="#BBE6FE" fill-opacity="0.97"/>
<path d="M600.109 161.173L560.314 179.503V-60.8281H600.109V161.173Z" fill="#4A91D1"/>
<path d="M638.312 104.145L598.517 123.833V-60.8281H638.312V104.145Z" fill="#2E93B4"/>
<path d="M786.349 -42.7932L599.553 58.6587L599.553 -111.685L666.516 -111.685L786.349 -42.7932Z" fill="#E45BC2" fill-opacity="0.97"/>
<path d="M688.895 51.5012L636.488 62.4987L1034.21 288.636L1056.28 260.391L688.895 51.5012Z" fill="#B7D5F1" fill-opacity="0.38"/>
<path d="M470.248 220.077C476.154 222.959 475.989 230.271 469.958 232.958L296.545 310.205C294.048 311.317 291.072 311.317 288.576 310.205L115.162 232.958C109.131 230.271 108.966 222.959 114.872 220.077L288.285 135.433C290.934 134.14 294.187 134.14 296.835 135.433L470.248 220.077Z" fill="#2A6093" fill-opacity="0.4"/>
<path d="M482.761 242.055C488.694 244.89 488.61 252.198 482.613 254.934L307.673 334.748C305.191 335.88 302.216 335.906 299.707 334.816L128.49 260.426C122.423 257.79 122.176 250.472 128.057 247.543L303.124 160.349C305.759 159.036 309.011 159.012 311.672 160.284L482.761 242.055Z" fill="#FEFEFE"/>
<path d="M357.085 457.882C363.046 460.642 363.012 467.963 357.025 470.773L303.888 495.707C301.413 496.868 298.438 496.928 295.924 495.867L240.083 472.297C234.009 469.734 233.713 462.43 239.561 459.425L292.613 432.169C295.237 430.821 298.488 430.753 301.159 431.989L357.085 457.882Z" fill="#2A6093" fill-opacity="0.44"/>
<path d="M364.522 473.836C364.522 470.552 362.516 467.602 359.461 466.395L300.647 443.164C295.396 441.09 289.708 444.96 289.708 450.605V575.933C289.708 579.108 291.585 581.982 294.492 583.258L353.307 609.077C358.593 611.397 364.522 607.525 364.522 601.751V473.836Z" fill="#FEFEFE" fill-opacity="0.97"/>
<path d="M354.972 484.718C354.972 481.506 353.05 478.605 350.093 477.352L308.788 459.85C303.513 457.614 297.667 461.486 297.667 467.216V567.003C297.667 570.101 299.456 572.92 302.258 574.24L343.563 593.692C348.869 596.19 354.972 592.319 354.972 586.454V484.718Z" fill="#ECA1D9" fill-opacity="0.84"/>
<path d="M444.218 247.223C447.016 248.517 448.749 251.023 448.723 253.739L447.733 354.936L437.228 462.358C436.858 466.14 433.171 469.058 428.722 469.09L298.333 470.018L165.074 470.967C160.264 471.001 156.355 467.667 156.395 463.564L158.43 255.589C158.456 252.989 160.092 250.594 162.731 249.293L296.985 183.123C299.577 181.845 302.762 181.809 305.394 183.026L444.218 247.223Z" fill="url(#paint4_linear_11_274)" fill-opacity="0.84"/>
<path d="M446.371 248.88C452.277 251.762 452.112 259.074 446.081 261.761L306.435 323.967C303.938 325.079 300.962 325.079 298.466 323.967L158.82 261.761C152.788 259.074 152.624 251.762 158.529 248.88L298.175 180.718C300.824 179.425 304.077 179.425 306.725 180.718L446.371 248.88Z" fill="#FEACE9" fill-opacity="0.84"/>
<path d="M326.319 482.694C326.319 479.143 328.66 476.017 332.067 475.017L398.841 455.429C403.963 453.926 409.093 457.767 409.093 463.105V563.556C409.093 567.019 406.865 570.089 403.573 571.162L336.799 592.932C331.628 594.618 326.319 590.764 326.319 585.326V482.694Z" fill="url(#paint5_linear_11_274)" fill-opacity="0.84"/>
<path d="M419.044 292.921C424.58 295.623 424.425 302.478 418.771 304.997L301.637 357.175C299.296 358.217 296.506 358.217 294.166 357.175L177.031 304.997C171.377 302.478 171.222 295.623 176.759 292.921L293.893 235.747C296.376 234.535 299.426 234.535 301.909 235.747L419.044 292.921Z" stroke="#FEFEFE" stroke-opacity="0.87"/>
<path d="M419.044 249.471C424.58 252.174 424.425 259.028 418.771 261.547L301.637 313.725C299.296 314.768 296.506 314.768 294.166 313.725L177.031 261.547C171.377 259.028 171.222 252.174 176.759 249.471L293.893 192.297C296.376 191.085 299.426 191.085 301.909 192.297L419.044 249.471Z" stroke="#E45BC2" stroke-opacity="0.59"/>
<path d="M419.044 267.123C424.58 269.825 424.425 276.68 418.771 279.199L301.637 331.377C299.296 332.419 296.506 332.419 294.166 331.377L177.031 279.199C171.377 276.68 171.222 269.825 176.759 267.123L293.893 209.949C296.376 208.737 299.426 208.737 301.909 209.949L419.044 267.123Z" stroke="#FEFEFE" stroke-opacity="0.87"/>
<path d="M367.206 476.571C367.206 473.56 365.405 470.84 362.632 469.665L321.327 452.163C316.382 450.067 310.901 453.698 310.901 459.069V558.856C310.901 561.76 312.578 564.404 315.206 565.641L356.511 585.093C361.485 587.435 367.206 583.806 367.206 578.307V476.571Z" stroke="#FEFEFE" stroke-opacity="0.87"/>
<path d="M392.675 468.424C392.675 465.413 390.874 462.694 388.101 461.519L346.796 444.016C341.851 441.921 336.37 445.551 336.37 450.922V550.709C336.37 553.613 338.047 556.257 340.675 557.494L381.979 576.946C386.954 579.288 392.675 575.659 392.675 570.16V468.424Z" stroke="#FEFEFE" stroke-opacity="0.87"/>
<path d="M75.7063 371.147L74.3573 316.294L119.002 337.213L75.7063 371.147Z" fill="#EDD79E"/>
<path d="M75.9729 370.795L74.6049 315.942L31.0353 338.451L75.9729 370.795Z" fill="#E6B948"/>
<path d="M330.419 167.283L329.07 112.429L339.874 112.429L330.419 167.283Z" fill="#A35E0C"/>
<path d="M333.263 161L332.182 111.966L324.797 111.966L333.263 161Z" fill="#824C0D"/>
<path d="M332.115 171.267L331.363 124.885L356.258 142.574L332.115 171.267Z" fill="#65C74C"/>
<path d="M332.264 170.97L331.501 124.588L307.206 143.621L332.264 170.97Z" fill="#4F9E42"/>
<path d="M332.883 198.571L332.131 147.328L357 166.871L332.883 198.571Z" fill="#65C74C"/>
<path d="M333.031 198.242L332.269 147L308 168.027L333.031 198.242Z" fill="#4F9E42"/>
</g>
<defs>
<linearGradient id="paint0_linear_11_274" x1="37.4073" y1="332.935" x2="37.4073" y2="70.8788" gradientUnits="userSpaceOnUse">
<stop stop-color="#2A557C" stop-opacity="0.97"/>
<stop offset="0.0001" stop-color="#2F6393" stop-opacity="0.97"/>
<stop offset="0.815625" stop-color="#3E78AE"/>
</linearGradient>
<linearGradient id="paint1_linear_11_274" x1="503.009" y1="368.238" x2="503.009" y2="513.523" gradientUnits="userSpaceOnUse">
<stop stop-color="#2A557C" stop-opacity="0.97"/>
<stop offset="1" stop-color="#3776B0"/>
</linearGradient>
<linearGradient id="paint2_linear_11_274" x1="308.809" y1="455.137" x2="308.809" y2="657.45" gradientUnits="userSpaceOnUse">
<stop stop-color="#3A73A7"/>
<stop offset="1" stop-color="#4A91D1"/>
</linearGradient>
<linearGradient id="paint3_linear_11_274" x1="128.14" y1="167.283" x2="128.14" y2="-60.8281" gradientUnits="userSpaceOnUse">
<stop stop-color="#2A6093" stop-opacity="0.97"/>
<stop offset="1" stop-color="#3776B0"/>
</linearGradient>
<linearGradient id="paint4_linear_11_274" x1="298.849" y1="178.277" x2="300.141" y2="359.734" gradientUnits="userSpaceOnUse">
<stop offset="0.284375" stop-color="#FDB5EB"/>
<stop offset="1" stop-color="#F8B7E7" stop-opacity="0.09"/>
</linearGradient>
<linearGradient id="paint5_linear_11_274" x1="326.319" y1="596.349" x2="420.016" y2="570.718" gradientUnits="userSpaceOnUse">
<stop offset="0.270991" stop-color="#FEACE9" stop-opacity="0.73"/>
<stop offset="1" stop-color="#FEACE9" stop-opacity="0"/>
</linearGradient>
</defs>
</svg>
